Coordinates
version=1
nRows=26
nColumns=24
inDegrees=yes

Units are S.I. units (second, meters, Newtons, ...)
Angles are in degrees.

endheader
time	pelvis_tilt	pelvis_list	pelvis_rotation	pelvis_tx	pelvis_ty	pelvis_tz	hip_flexion_r	hip_adduction_r	hip_rotation_r	knee_angle_r	ankle_angle_r	subtalar_angle_r	mtp_angle_r	hip_flexion_l	hip_adduction_l	hip_rotation_l	knee_angle_l	ankle_angle_l	subtalar_angle_l	mtp_angle_l	lumbar_extension	lumbar_bending	lumbar_rotation
      1.17000000	     -6.31166507	     -6.27626196	     -5.11515587	     -0.72226358	      1.26052505	     -0.89340246	    -10.00186589	     12.00581108	     18.09588907	     -4.80082569	      8.95100991	      4.45197372	      5.57088719	     32.24345199	     -2.59080274	      2.01054920	     -7.73214501	     -4.58507372	    -18.42605555	      8.58511004	     -2.58617311	     10.45947916	      2.82493597
      1.17500000	     -6.49056967	     -6.19478327	     -4.74310744	     -0.71557000	      1.25965077	     -0.89410389	    -10.16546863	     11.95062284	     17.15560132	     -4.95412707	      9.08713943	      5.05367821	      5.87543731	     32.52554780	     -2.17443410	      2.80580368	     -8.32916240	     -5.05515213	    -18.90134608	      8.41631680	     -2.12002615	     10.28938862	      2.43427710
      1.18000000	     -6.63770383	     -6.09243216	     -4.36910763	     -0.70884817	      1.25887386	     -0.89478703	    -10.35653859	     11.87203951	     16.24454144	     -5.11329910	      9.16090129	      5.58834217	      6.23976771	     32.75574557	     -1.72727009	      3.61332820	     -8.95950220	     -5.58838344	    -19.42111205	      8.20521081	     -1.69007608	     10.08116006	      2.05273214
      1.18500000	     -6.78679931	     -5.97538255	     -4.00422262	     -0.70207620	      1.25817839	     -0.89542932	    -10.53469730	     11.78055821	     15.37438083	     -5.28655401	      9.15784457	      6.05233463	      6.62735043	     32.98072239	     -1.26553016	      4.39773747	     -9.64203355	     -6.07599901	    -19.90200885	      8.00074098	     -1.25219346	      9.83841687	      1.71259059
      1.19000000	     -6.90510522	     -5.83622107	     -3.63833464	     -0.69529737	      1.25760409	     -0.89607089	    -10.72117149	     11.66441480	     14.51823407	     -5.49770751	      9.13092395	      6.52693949	      7.07157261	     33.14130715	     -0.77637709	      5.17814568	    -10.30618540	     -6.68766345	    -20.37549748	      7.77708853	     -0.85382595	      9.57122428	      1.36452943
      1.19500000	     -7.01466620	     -5.68511247	     -3.28706276	     -0.68851057	      1.25714651	     -0.89667284	    -10.89814961	     11.53524532	     13.72293144	     -5.73173050	      9.02779446	      6.93391437	      7.54077118	     33.27423865	     -0.28302965	      5.92997491	    -10.97969613	     -7.28327016	    -20.78595459	      7.57307167	     -0.47857747	      9.28211401	      1.03878729
      1.20000000	     -7.11285104	     -5.52277896	     -2.94237028	     -0.68170760	      1.25681099	     -0.89724167	    -11.06337701	     11.39471410	     12.96545259	     -6.00165694	      8.87401361	      7.33626838	      8.04884446	     33.37262977	      0.21749236	      6.65357472	    -11.64661257	     -7.88185082	    -21.17107185	      7.37786487	     -0.11975263	      8.96741504	      0.74501809
      1.20500000	     -7.19299098	     -5.35109123	     -2.60557559	     -0.67489421	      1.25660481	     -0.89779529	    -11.22165501	     11.24185745	     12.23804746	     -6.30648627	      8.64870538	      7.71663808	      8.59850359	     33.42425360	      0.72180564	      7.35287080	    -12.29375641	     -8.46185418	    -21.49981023	      7.19799522	      0.21329376	      8.64063235	      0.46764793
      1.21000000	     -7.26074959	     -5.17123620	     -2.28072602	     -0.66808622	      1.25653873	     -0.89832227	    -11.35419184	     11.07963399	     11.52891194	     -6.66933911	      8.35766513	      8.08516650	      9.18548060	     33.43342068	      1.22419726	      8.02185882	    -12.91403906	     -9.02121522	    -21.80373986	      7.02573362	      0.51835526	      8.30110385	      0.22224348
      1.21500000	     -7.31065768	     -4.99638799	     -1.95855294	     -0.66128166	      1.25659683	     -0.89883584	    -11.47682889	     10.92157481	     10.85496623	     -7.06894739	      7.97637109	      8.42033088	      9.75680110	     33.40203641	      1.71599587	      8.66322653	    -13.51882682	     -9.49652001	    -22.03299156	      6.88274161	      0.79611121	      7.96365175	     -0.01195032
      1.22000000	     -7.35778301	     -4.81371257	     -1.65062971	     -0.65446914	      1.25679373	     -0.89931645	    -11.56107040	     10.75163846	     10.19478299	     -7.52917458	      7.54210172	      8.79904723	     10.39340279	     33.32601829	      2.19864577	      9.26318135	    -14.06782597	     -9.97527742	    -22.24892863	      6.73023627	      1.06270963	      7.61538089	     -0.22264625
      1.22500000	     -7.38814863	     -4.63620280	     -1.35211424	     -0.64767555	      1.25712448	     -0.89977390	    -11.62001028	     10.58387959	      9.55257342	     -8.04705355	      7.02598660	      9.17633669	     11.04148556	     33.20025187	      2.66214310	      9.82713476	    -14.57869414	    -10.38533718	    -22.42188193	      6.58472456	      1.29690863	      7.26928525	     -0.41829856
      1.23000000	     -7.41819536	     -4.45661889	     -1.06553775	     -0.64086054	      1.25757883	     -0.90020059	    -11.64549564	     10.40666612	      8.92219402	     -8.60495698	      6.45016395	      9.61694767	     11.78610301	     33.03907270	      3.10917843	     10.32823104	    -15.04363178	    -10.78691882	    -22.57772436	      6.41492476	      1.53354479	      6.91612656	     -0.56319817
      1.23500000	     -7.42829745	     -4.30118286	     -0.78108533	     -0.63410195	      1.25814849	     -0.90062690	    -11.62473068	     10.25377238	      8.27559818	     -9.26083397	      5.78480000	     10.04729621	     12.46167234	     32.82565304	      3.52252881	     10.82951240	    -15.46765070	    -11.03890897	    -22.67627344	      6.25570312	      1.72542139	      6.59173821	     -0.71242331
      1.24000000	     -7.43115579	     -4.16100704	     -0.52153088	     -0.62736695	      1.25884472	     -0.90101641	    -11.56115631	     10.10722448	      7.65602079	     -9.97821994	      5.01334370	     10.51678080	     13.28488804	     32.57906202	      3.89308678	     11.23470622	    -15.85722920	    -11.27971417	    -22.78377114	      6.03451301	      1.89792012	      6.29279229	     -0.85677437
      1.24500000	     -7.42765495	     -4.02438098	     -0.25084124	     -0.62063137	      1.25963014	     -0.90140629	    -11.44488099	      9.95798527	      6.96364825	    -10.77920660	      4.19689663	     11.05892717	     13.88234272	     32.27724314	      4.25126205	     11.64934402	    -16.17252769	    -11.36048294	    -22.78382225	      5.87610582	      2.06311805	      5.98684290	     -0.97697587
      1.25000000	     -7.40818172	     -3.92313281	      0.02158947	     -0.61396703	      1.26050263	     -0.90180676	    -11.28661479	      9.83752804	      6.25208218	    -11.65097268	      3.26563199	     11.61094133	     14.41143277	     31.95512000	      4.56701009	     12.02498316	    -16.48818428	    -11.37169213	    -22.77115877	      5.72488775	      2.19169383	      5.72630087	     -1.12504004
      1.25500000	     -7.39953958	     -3.82253151	      0.26603626	     -0.60730489	      1.26148761	     -0.90217164	    -11.06040791	      9.69981218	      5.55171023	    -12.58698057	      2.21597270	     12.26326099	     14.93509738	     31.57237233	      4.84508387	     12.35580744	    -16.67919898	    -11.32840053	    -22.72379988	      5.56195627	      2.32681148	      5.47595500	     -1.26787055
      1.26000000	     -7.37655803	     -3.71255518	      0.49585382	     -0.60067288	      1.26254471	     -0.90251423	    -10.75819984	      9.53054125	      4.73447242	    -13.65938880	      1.21794469	     13.02783454	     15.61552876	     31.14408137	      5.11048594	     12.62044483	    -16.82604625	    -11.26423319	    -22.67965195	      5.28316137	      2.44811872	      5.20409801	     -1.31204387
      1.26500000	     -7.35013945	     -3.65125983	      0.72510940	     -0.59413608	      1.26367370	     -0.90285746	    -10.42508562	      9.40528313	      3.98215644	    -14.73789231	     -0.05864052	     13.66728653	     16.01232138	     30.69719965	      5.31390065	     12.88440359	    -16.94210055	    -11.09613065	    -22.56069024	      5.15033044	      2.53743881	      4.99956948	     -1.45269738
      1.27000000	     -7.29967541	     -3.56845569	      0.95119409	     -0.58766372	      1.26483105	     -0.90321407	    -10.00079418	      9.21999492	      3.03265428	    -16.00334120	     -1.21720130	     14.53620564	     16.46883238	     30.20561475	      5.52597209	     13.08185107	    -17.02788213	    -10.87907422	    -22.43051889	      4.93174789	      2.59228202	      4.77088091	     -1.53739481
      1.27500000	     -7.27013811	     -3.48633518	      1.15349120	     -0.58125408	      1.26603008	     -0.90353992	     -9.49625523	      9.01340890	      2.11293442	    -17.33043584	     -2.51042820	     15.34137078	     16.84887969	     29.68770123	      5.70785672	     13.24986271	    -17.01855583	    -10.64298459	    -22.28796199	      4.69788994	      2.65689001	      4.54633029	     -1.62160882
      1.28000000	     -7.24082407	     -3.40221711	      1.33841253	     -0.57491813	      1.26724135	     -0.90386122	     -8.92914512	      8.77506253	      1.16470557	    -18.72826043	     -3.90224751	     16.12664153	     17.13054514	     29.14492963	      5.87137496	     13.38071814	    -16.96102406	    -10.37975284	    -22.12698439	      4.48169997	      2.71268230	      4.33159942	     -1.70216882
      1.28500000	     -7.22670890	     -3.29744440	      1.49968271	     -0.56866042	      1.26844408	     -0.90416361	     -8.27696120	      8.48153877	      0.19047294	    -20.21629356	     -5.33359370	     16.88184567	     17.32909358	     28.58343676	      6.03206287	     13.47803249	    -16.83398244	    -10.10525414	    -21.95962305	      4.24364790	      2.76998076	      4.09719498	     -1.76315211
      1.29000000	     -7.21593890	     -3.17901013	      1.64152016	     -0.56250807	      1.26962413	     -0.90445305	     -7.56638043	      8.14272346	     -0.78784285	    -21.76346728	     -6.83451095	     17.54975011	     17.43121604	     28.00493485	      6.18715658	     13.53534133	    -16.65872481	     -9.82629045	    -21.79665835	      4.01125293	      2.80962148	      3.85694005	     -1.82529008
      1.29500000	     -7.22082439	     -3.02519123	      1.75324552	     -0.55643123	      1.27076615	     -0.90471530	     -6.78663261	      7.73393498	     -1.75569127	    -23.38016469	     -8.33120992	     18.15129662	     17.21400567	     27.40539999	      6.35250887	     13.54928220	    -16.40894948	     -9.57728265	    -21.59880746	      3.53152853	      2.85942045	      3.58408777	     -1.85094782
